<svg width="28" height="28" xmlns="http://www.w3.org/2000/svg">
 <g>
  <title>Layer 1</title>
  <g id="svg_1">
   <path id="svg_2" clip-rule="evenodd" d="m14,20c3.3137,0 6,-2.6863 6,-6c0,-3.3137 -2.6863,-6 -6,-6c-3.3137,0 -6,2.6863 -6,6c0,3.3137 2.6863,6 6,6zm4,-6c0,2.2091 -1.7909,4 -4,4c-2.2091,0 -4,-1.7909 -4,-4c0,-2.2091 1.7909,-4 4,-4c2.2091,0 4,1.7909 4,4z" fill="#ffffff" fill-rule="evenodd"/>
   <path id="svg_3" clip-rule="evenodd" d="m0,12.9996l0,2c0,1.5482 1.17261,2.8224 2.67809,2.983c0.12779,0.3633 0.27253,0.7185 0.43324,1.0647c-0.98649,1.1787 -0.92597,2.9367 0.18158,4.0443l1.41421,1.4142c1.08234,1.0823 2.78593,1.1648 3.96291,0.2473c0.43437,0.2157 0.8838,0.4059 1.34627,0.5687c0.1606,1.5055 1.4348,2.6782 2.983,2.6782l2,0c1.5478,0 2.8218,-1.1721 2.9828,-2.6772c0.4203,-0.1478 0.8298,-0.3182 1.227,-0.5099c1.1732,0.8535 2.8253,0.7511 3.8835,-0.3071l1.4142,-1.4142c1.0582,-1.0582 1.1606,-2.7103 0.3072,-3.8835c0.1914,-0.3968 0.3617,-0.8058 0.5094,-1.2257c1.5048,-0.1613 2.6766,-1.4352 2.6766,-2.9828l0,-2c0,-1.5476 -1.1718,-2.8214 -2.6766,-2.9827c-0.1629,-0.46315 -0.3533,-0.91316 -0.5693,-1.34807c0.9167,-1.17694 0.8341,-2.87995 -0.248,-3.96202l-1.4142,-1.41422c-1.1073,-1.10728 -2.8648,-1.16804 -4.0434,-0.18229c-0.3468,-0.16095 -0.7026,-0.30589 -1.0665,-0.43383c-0.1613,-1.5047 -1.4352,-2.67647 -2.9827,-2.67647l-2,0c-1.5479,0 -2.822,1.17231 -2.9829,2.6775c-0.40861,0.1438 -0.80704,0.30903 -1.19389,0.49431c-1.17807,-1.0493 -2.98487,-1.00905 -4.11469,0.12078l-1.41422,1.41421c-1.12983,1.12984 -1.17008,2.93665 -0.12075,4.11472c-0.18548,0.38725 -0.35086,0.78611 -0.49476,1.19518c-1.50548,0.1606 -2.67809,1.4348 -2.67809,2.9829zm15.9993,-9.9996c0,-0.55228 -0.4477,-1 -1,-1l-2,0c-0.5523,0 -1,0.44772 -1,1l0,0.38269c0,0.47554 -0.3367,0.88007 -0.7934,1.01273c-0.7093,0.20606 -1.38616,0.48859 -2.02095,0.83806c-0.41659,0.22934 -0.9407,0.18133 -1.27696,-0.15493l-0.37175,-0.37174c-0.39052,-0.39053 -1.02368,-0.39053 -1.41421,-0.00001l-1.41421,1.41422c-0.39053,0.39052 -0.39053,1.02369 0,1.41421l0.37176,0.37176c0.33626,0.33626 0.38427,0.86037 0.15493,1.27696c-0.34966,0.63515 -0.63231,1.31235 -0.8384,2.02215c-0.13261,0.4568 -0.53717,0.7935 -1.01277,0.7935l-0.38334,0c-0.55228,0 -1,0.4478 -1,1l0,2c0,0.5523 0.44772,1 1,1l0.38334,0c0.4756,0 0.88015,0.3368 1.01277,0.7935c0.19343,0.6663 0.45431,1.3038 0.77474,1.9048c0.22117,0.4148 0.1701,0.9314 -0.1623,1.2638l-0.30143,0.3015c-0.39052,0.3905 -0.39052,1.0236 0,1.4142l1.41422,1.4142c0.39052,0.3905 1.02369,0.3905 1.41421,0l0.24332,-0.2433c0.34012,-0.3402 0.87168,-0.385 1.28992,-0.1475c0.66816,0.3796 1.38431,0.6844 2.13711,0.9031c0.4567,0.1326 0.7934,0.5372 0.7934,1.0127l0,0.3834c0,0.5523 0.4477,1 1,1l2,0c0.5523,0 1,-0.4477 1,-1l0,-0.3826c0,-0.4756 0.3368,-0.8802 0.7936,-1.0128c0.7103,-0.2061 1.388,-0.4889 2.0235,-0.8388c0.4166,-0.2293 0.9407,-0.1813 1.277,0.155l0.1708,0.1708c0.3905,0.3905 1.0237,0.3905 1.4142,0l1.4142,-1.4142c0.3905,-0.3906 0.3905,-1.0237 0,-1.4142l-0.1708,-0.1708c-0.3363,-0.3363 -0.3843,-0.8604 -0.1549,-1.277c0.3497,-0.6352 0.6323,-1.3124 0.8384,-2.0223c0.1326,-0.4567 0.5372,-0.7935 1.0128,-0.7935l0.3819,0c0.5523,0 1,-0.4477 1,-1l0,-2c0,-0.5522 -0.4477,-1 -1,-1l-0.3819,0c-0.4756,0 -0.8802,-0.3367 -1.0128,-0.7935c-0.2187,-0.7532 -0.5236,-1.46983 -0.9034,-2.13837c-0.2376,-0.41824 -0.1927,-0.9498 0.1474,-1.28992l0.2426,-0.24258c0.3905,-0.39052 0.3905,-1.02369 0,-1.41421l-1.4142,-1.41422c-0.3905,-0.39052 -1.0237,-0.39052 -1.4142,0l-0.3007,0.30068c-0.3324,0.3324 -0.8491,0.38348 -1.2639,0.16231c-0.6013,-0.32064 -1.2393,-0.58164 -1.906,-0.77512c-0.4568,-0.13257 -0.7936,-0.53715 -0.7936,-1.0128l0,-0.38187z" fill="#ffffff" fill-rule="evenodd"/>
  </g>
  <g>
   <path fill-rule="evenodd" fill="#ffffff" d="m14,20.07299c3.3137,0 6,-2.6863 6,-6c0,-3.3137 -2.6863,-6 -6,-6c-3.3137,0 -6,2.6863 -6,6c0,3.3137 2.6863,6 6,6zm4,-6c0,2.2091 -1.7909,4 -4,4c-2.2091,0 -4,-1.7909 -4,-4c0,-2.2091 1.7909,-4 4,-4c2.2091,0 4,1.7909 4,4z" clip-rule="evenodd"/>
   <path fill-rule="evenodd" fill="#ffffff" d="m0,13.07259l0,2c0,1.5482 1.17261,2.8224 2.67809,2.983c0.12779,0.3633 0.27253,0.7185 0.43324,1.0647c-0.98649,1.1787 -0.92597,2.9367 0.18158,4.0443l1.41421,1.4142c1.08234,1.0823 2.78593,1.1648 3.96291,0.2473c0.43437,0.2157 0.8838,0.4059 1.34627,0.5687c0.1606,1.5055 1.4348,2.6782 2.983,2.6782l2,0c1.5478,0 2.8218,-1.1721 2.9828,-2.6772c0.4203,-0.1478 0.8298,-0.3182 1.227,-0.5099c1.1732,0.8535 2.8253,0.7511 3.8835,-0.3071l1.4142,-1.4142c1.0582,-1.0582 1.1606,-2.7103 0.3072,-3.8835c0.1914,-0.3968 0.3617,-0.8058 0.5094,-1.2257c1.5048,-0.1613 2.6766,-1.4352 2.6766,-2.9828l0,-2c0,-1.5476 -1.1718,-2.8214 -2.6766,-2.9827c-0.1629,-0.46315 -0.3533,-0.91316 -0.5693,-1.34807c0.9167,-1.17694 0.8341,-2.87995 -0.248,-3.96202l-1.4142,-1.41422c-1.1073,-1.10728 -2.8648,-1.16804 -4.0434,-0.18229c-0.3468,-0.16095 -0.7026,-0.30589 -1.0665,-0.43383c-0.1613,-1.5047 -1.4352,-2.67647 -2.9827,-2.67647l-2,0c-1.5479,0 -2.822,1.17231 -2.9829,2.6775c-0.40861,0.1438 -0.80704,0.30903 -1.19389,0.49431c-1.17807,-1.0493 -2.98487,-1.00905 -4.11469,0.12078l-1.41422,1.41421c-1.12983,1.12984 -1.17008,2.93665 -0.12075,4.11472c-0.18548,0.38725 -0.35086,0.78611 -0.49476,1.19518c-1.50548,0.1606 -2.67809,1.4348 -2.67809,2.9829zm15.9993,-9.9996c0,-0.55228 -0.4477,-1 -1,-1l-2,0c-0.5523,0 -1,0.44772 -1,1l0,0.38269c0,0.47554 -0.3367,0.88007 -0.7934,1.01273c-0.7093,0.20606 -1.38616,0.48859 -2.02095,0.83806c-0.41659,0.22934 -0.9407,0.18133 -1.27696,-0.15493l-0.37175,-0.37174c-0.39052,-0.39053 -1.02368,-0.39053 -1.41421,-0.00001l-1.41421,1.41422c-0.39053,0.39052 -0.39053,1.02369 0,1.41421l0.37176,0.37176c0.33626,0.33626 0.38427,0.86037 0.15493,1.27696c-0.34966,0.63515 -0.63231,1.31235 -0.8384,2.02215c-0.13261,0.4568 -0.53717,0.7935 -1.01277,0.7935l-0.38334,0c-0.55228,0 -1,0.4478 -1,1l0,2c0,0.5523 0.44772,1 1,1l0.38334,0c0.4756,0 0.88015,0.3368 1.01277,0.7935c0.19343,0.6663 0.45431,1.3038 0.77474,1.9048c0.22117,0.4148 0.1701,0.9314 -0.1623,1.2638l-0.30143,0.3015c-0.39052,0.3905 -0.39052,1.0236 0,1.4142l1.41422,1.4142c0.39052,0.3905 1.02369,0.3905 1.41421,0l0.24332,-0.2433c0.34012,-0.3402 0.87168,-0.385 1.28992,-0.1475c0.66816,0.3796 1.38431,0.6844 2.13711,0.9031c0.4567,0.1326 0.7934,0.5372 0.7934,1.0127l0,0.3834c0,0.5523 0.4477,1 1,1l2,0c0.5523,0 1,-0.4477 1,-1l0,-0.3826c0,-0.4756 0.3368,-0.8802 0.7936,-1.0128c0.7103,-0.2061 1.388,-0.4889 2.0235,-0.8388c0.4166,-0.2293 0.9407,-0.1813 1.277,0.155l0.1708,0.1708c0.3905,0.3905 1.0237,0.3905 1.4142,0l1.4142,-1.4142c0.3905,-0.3906 0.3905,-1.0237 0,-1.4142l-0.1708,-0.1708c-0.3363,-0.3363 -0.3843,-0.8604 -0.1549,-1.277c0.3497,-0.6352 0.6323,-1.3124 0.8384,-2.0223c0.1326,-0.4567 0.5372,-0.7935 1.0128,-0.7935l0.3819,0c0.5523,0 1,-0.4477 1,-1l0,-2c0,-0.5522 -0.4477,-1 -1,-1l-0.3819,0c-0.4756,0 -0.8802,-0.3367 -1.0128,-0.7935c-0.2187,-0.7532 -0.5236,-1.46983 -0.9034,-2.13837c-0.2376,-0.41824 -0.1927,-0.9498 0.1474,-1.28992l0.2426,-0.24258c0.3905,-0.39052 0.3905,-1.02369 0,-1.41421l-1.4142,-1.41422c-0.3905,-0.39052 -1.0237,-0.39052 -1.4142,0l-0.3007,0.30068c-0.3324,0.3324 -0.8491,0.38348 -1.2639,0.16231c-0.6013,-0.32064 -1.2393,-0.58164 -1.906,-0.77512c-0.4568,-0.13257 -0.7936,-0.53715 -0.7936,-1.0128l0,-0.38187z" clip-rule="evenodd"/>
  </g>
 </g>

</svg>